HIERARCHY
ROOT Hips
{
	OFFSET 0.000000 88.474243 0.000000
	CHANNELS 6 Xposition Yposition Zposition Zrotation Yrotation Xrotation 
	JOINT Hips_Spine
	{
		OFFSET 0.000000 0.000000 0.000000
		CHANNELS 3 Zrotation Yrotation Xrotation
		JOINT Spine
		{
			OFFSET 0.005100 8.711998 -0.691000
			CHANNELS 3 Zrotation Yrotation Xrotation
			JOINT Spine1
			{
				OFFSET -0.009200 8.660301 -1.275000
				CHANNELS 3 Zrotation Yrotation Xrotation
				JOINT Spine2
				{
					OFFSET 0.006300 9.852501 -1.857000
					CHANNELS 3 Zrotation Yrotation Xrotation
					JOINT Spine2_Neck
					{
						OFFSET 0.000000 0.000000 0.000000
						CHANNELS 3 Zrotation Yrotation Xrotation
						JOINT Neck
						{
							OFFSET 0.016300 11.420799 -0.263300
							CHANNELS 3 Zrotation Yrotation Xrotation
							End Site #name: Head
							{
								OFFSET -0.019200 9.262405 2.362500
							}
						}
					}
					JOINT Spine2_LeftShoulder
					{
						OFFSET 0.000000 0.000000 0.000000
						CHANNELS 3 Zrotation Yrotation Xrotation
						JOINT LeftShoulder
						{
							OFFSET 5.616900 6.732201 -0.345700
							CHANNELS 3 Zrotation Yrotation Xrotation
							JOINT LeftArm
							{
								OFFSET 10.664888 -0.183372 -2.440700
								CHANNELS 3 Zrotation Yrotation Xrotation
								JOINT LeftForeArm
								{
									OFFSET 27.459126 0.000000 0.000000
									CHANNELS 3 Zrotation Yrotation Xrotation
									End Site #name: LeftHand
									{
										OFFSET 21.306858 0.000000 0.000000
									}
								}
							}
						}
					}
					JOINT Spine2_RightShoulder
					{
						OFFSET 0.000000 0.000000 0.000000
						CHANNELS 3 Zrotation Yrotation Xrotation
						JOINT RightShoulder
						{
							OFFSET -5.580300 6.737503 -0.344400
							CHANNELS 3 Zrotation Yrotation Xrotation
							JOINT RightArm
							{
								OFFSET -10.679335 -0.188484 -2.383900
								CHANNELS 3 Zrotation Yrotation Xrotation
								JOINT RightForeArm
								{
									OFFSET -27.503529 0.000000 0.000000
									CHANNELS 3 Zrotation Yrotation Xrotation
									End Site #name: RightHand
									{
										OFFSET -21.306808 0.000000 0.000000
									}
								}
							}
						}
					}
				}
			}
		}
	}
	JOINT Hips_LeftUpLeg
	{
		OFFSET 0.000000 0.000000 0.000000
		CHANNELS 3 Zrotation Yrotation Xrotation
		JOINT LeftUpLeg
		{
			OFFSET 6.857700 -6.739601 0.312100
			CHANNELS 3 Zrotation Yrotation Xrotation
			JOINT LeftLeg
			{
				OFFSET -0.367590 -34.731552 -4.572400
				CHANNELS 3 Zrotation Yrotation Xrotation
				End Site #name: LeftFoot
				{
					OFFSET 0.367590 -34.656704 -6.067400
				}
			}
		}
	}
	JOINT Hips_RightUpLeg
	{
		OFFSET 0.000000 0.000000 0.000000
		CHANNELS 3 Zrotation Yrotation Xrotation
		JOINT RightUpLeg
		{
			OFFSET -6.876100 -6.733299 0.301000
			CHANNELS 3 Zrotation Yrotation Xrotation
			JOINT RightLeg
			{
				OFFSET 0.347353 -34.795158 -4.515900
				CHANNELS 3 Zrotation Yrotation Xrotation
				End Site #name: RightFoot
				{
					OFFSET -0.347353 -34.589367 -6.070300
				}
			}
		}
	}
}
MOTION
Frames: 12
Frame Time: 0.041667
0.021865 -0.010540 -0.087219 177.932284 41.825279 -179.015640 -0.000000 -0.000000 0.000000 -2.529364 1.965883 -1.605764 1.790321 -0.333590 1.146925 0.000000 0.000000 0.000000 1.488928 -1.046714 -2.212122 -1.616321 -6.767741 -2.931459 0.986661 -0.034639 -0.795321 -4.288688 -7.417509 1.565909 -78.268573 -6.786130 8.503370 0.583418 -18.093920 2.107305 1.097083 -0.565180 -0.642799 19.327135 11.867271 3.961340 52.165422 10.935965 -11.815477 -4.960056 58.983702 1.381918 0.000000 -0.000000 0.000000 -6.157607 17.139337 -14.389584 -6.707298 -35.826162 0.135003 -0.000000 -0.000000 -0.000000 -6.644541 -24.650742 -9.028535 -11.611202 -7.282333 16.313849 
-0.053815 -0.174855 -0.126658 175.332522 52.100460 -179.962191 -0.000000 -0.000000 0.000000 -4.444733 1.088476 1.026721 2.359956 -0.559415 0.420098 0.000000 0.000000 0.000000 2.135889 -0.753066 -1.662137 -0.425691 -13.599437 -2.200537 1.434770 -0.311325 -1.166381 -2.659010 -9.613893 1.700306 -83.065372 -15.169253 3.531125 -1.015965 -13.500454 1.832910 2.233351 -1.032243 0.547872 25.104780 13.150324 4.125315 51.713099 11.570809 -10.133977 -3.854243 42.049785 2.622257 0.000000 -0.000000 -0.000000 -5.083358 17.235702 -13.126709 -4.338584 -35.540841 -4.453834 -0.000000 -0.000000 -0.000000 -7.231920 -28.060795 -8.524696 -9.065579 -2.828697 16.057038 
-0.049726 -0.256698 -0.139372 174.974739 44.358328 179.974569 -0.000000 -0.000000 0.000000 -5.431485 -1.203311 1.635091 2.570403 -0.795081 0.138726 0.000000 0.000000 0.000000 2.540414 -1.026204 -1.537770 -0.840658 -21.815247 -1.679312 1.510250 -0.400716 -1.636545 -1.371518 -8.866531 0.985141 -84.332385 -16.722608 -1.889157 -0.687619 -6.455533 1.992413 2.560166 -1.246880 -0.024192 26.580350 14.980311 4.876410 50.861340 15.164554 -5.541651 -2.059827 38.943294 6.506030 -0.000000 -0.000000 -0.000000 -3.694833 17.582364 -11.784875 -3.526372 -35.053948 -6.243343 -0.000000 -0.000000 -0.000000 -7.436772 -33.374008 -6.820951 -8.754569 -1.977495 16.543697 
0.067148 -0.307780 -0.157601 176.194673 36.260368 -179.470329 -0.000000 -0.000000 0.000000 -5.173943 -2.557053 2.277846 2.115763 -1.213589 -0.275507 0.000000 0.000000 0.000000 2.325627 -1.451311 -1.332779 -1.752625 -25.451763 -1.196969 1.260718 -0.719152 -1.948493 -1.150553 -7.956726 0.573138 -84.931795 -18.354508 -1.885502 -0.413615 -3.236942 1.807212 2.207275 -1.843410 -0.247068 25.421459 14.456447 4.803535 50.991025 17.751316 -3.338707 -0.901080 37.945126 7.639907 -0.000000 -0.000000 -0.000000 -2.793520 18.364643 -10.482008 -2.776587 -35.380078 -7.083845 -0.000000 -0.000000 -0.000000 -7.562524 -39.402237 -6.091647 -9.180996 -1.457864 17.295278 
0.191695 -0.328815 -0.219428 176.521026 29.996450 -179.361578 -0.000000 -0.000000 0.000000 -4.254093 -3.006616 2.456612 1.651307 -1.462052 -0.455267 0.000000 0.000000 0.000000 2.011136 -1.649604 -0.758990 -1.769532 -27.157948 -0.867066 0.884102 -1.052001 -1.857284 -1.224274 -7.255141 0.382786 -84.856646 -19.812831 -1.415620 0.596703 -2.510030 2.603420 1.624271 -2.240449 0.005320 23.679331 13.412855 4.487978 51.225707 19.400810 -2.004666 0.207616 36.731801 7.711862 -0.000000 -0.000000 -0.000000 -2.339818 18.958901 -10.006322 -2.536324 -35.610516 -7.335986 -0.000000 -0.000000 -0.000000 -7.581825 -44.075456 -5.769111 -9.734549 -1.105675 18.018157 
0.325134 -0.336241 -0.307969 176.475001 26.001754 -179.266222 -0.000000 -0.000000 0.000000 -3.099912 -2.895399 2.612619 1.223698 -1.577398 -0.153838 0.000000 0.000000 0.000000 1.632446 -1.674094 0.069460 -1.293265 -27.272067 -1.193461 0.507785 -1.178253 -1.416355 -1.398914 -6.593253 0.263283 -84.610061 -20.288678 -0.420100 2.440563 -2.704776 4.699551 1.193103 -2.292771 0.146279 22.322136 12.535914 4.258658 51.728145 19.640733 -0.757570 0.035725 37.487983 7.285991 -0.000000 -0.000000 -0.000000 -2.342583 18.961970 -10.234283 -2.454412 -35.285515 -7.249207 -0.000000 -0.000000 -0.000000 -7.457799 -47.740484 -5.817262 -10.498879 -1.324019 18.397891 
0.459349 -0.327780 -0.412671 175.919187 24.579181 -179.161853 -0.000000 -0.000000 0.000000 -2.220063 -1.860937 3.067548 0.777117 -1.534431 0.520730 0.000000 0.000000 0.000000 1.267699 -1.614228 0.983091 -0.719313 -26.442182 -1.879049 0.249243 -1.168319 -0.898654 -1.564703 -5.929899 0.106353 -84.389287 -20.410953 0.806259 3.732098 -3.726420 6.176920 0.787640 -2.227272 0.432144 21.473114 12.032809 4.088050 52.210554 18.568275 0.438366 0.770617 37.933926 7.789433 -0.000000 -0.000000 -0.000000 -2.504620 18.520953 -10.764647 -2.332939 -34.669271 -7.433596 -0.000000 -0.000000 -0.000000 -7.386827 -50.329819 -6.025363 -11.179018 -2.188074 18.405703 
0.589403 -0.307050 -0.519490 175.313224 24.229236 -179.048149 -0.000000 -0.000000 0.000000 -1.664470 -0.624157 3.656472 0.461721 -1.442632 1.139747 0.000000 0.000000 0.000000 0.983483 -1.533959 1.796037 -0.404356 -25.404202 -2.317909 0.052404 -1.102125 -0.380111 -1.651350 -5.535352 0.088643 -84.003396 -20.424211 1.839990 4.520164 -5.098676 6.962551 0.442530 -2.139485 0.766038 20.983740 11.914926 3.985254 52.563789 17.268934 1.351522 1.972995 37.934561 8.803434 -0.000000 -0.000000 -0.000000 -2.654683 17.980386 -11.209051 -2.188485 -34.117173 -7.847276 -0.000000 -0.000000 -0.000000 -7.303782 -51.826105 -6.392408 -11.786594 -3.516292 18.315879 
0.717699 -0.282907 -0.618439 174.869608 23.439492 -178.958556 -0.000000 -0.000000 0.000000 -1.388697 0.356811 4.132601 0.205911 -1.319377 1.681984 0.000000 0.000000 0.000000 0.678802 -1.440273 2.339779 -0.293379 -24.563648 -2.523504 -0.125328 -1.034025 0.019171 -1.602577 -5.415538 0.183412 -83.477215 -20.533315 2.538707 4.848378 -6.801329 6.996129 0.148002 -2.055855 1.026027 20.623804 12.088560 3.894188 52.692013 16.242341 1.689760 2.961098 36.234073 9.486097 0.000000 0.000000 -0.000000 -2.692657 17.459264 -11.275066 -2.053196 -33.706907 -8.321340 -0.000000 -0.000000 -0.000000 -7.094840 -52.043197 -6.830741 -12.310952 -4.925834 18.152252 
0.841355 -0.257427 -0.715837 174.672627 22.240721 -178.916990 -0.000000 -0.000000 0.000000 -1.483922 0.920929 4.358738 -0.032084 -1.226855 2.049024 0.000000 0.000000 0.000000 0.428595 -1.373406 2.653436 -0.277843 -24.165207 -2.624218 -0.282724 -1.008941 0.236303 -1.483311 -5.381616 0.309141 -83.064369 -20.836743 2.953322 4.994586 -8.573559 6.640087 -0.111444 -2.001719 1.207097 20.215411 12.262418 3.766431 52.853460 15.239028 1.754189 3.592049 34.940052 9.502742 0.000000 0.000000 -0.000000 -2.632794 17.073232 -10.984750 -1.952952 -33.505137 -8.773858 -0.000000 -0.000000 -0.000000 -6.940061 -51.315335 -7.141259 -12.418126 -5.964684 17.987029 
0.959951 -0.232575 -0.816212 174.698164 20.956670 -178.885284 -0.000000 -0.000000 0.000000 -1.847307 1.082785 4.515066 -0.243514 -1.202087 2.245339 0.000000 0.000000 0.000000 0.230150 -1.336444 2.734181 -0.203535 -24.021167 -2.759735 -0.419126 -1.011701 0.340686 -1.316172 -5.419182 0.438672 -82.853588 -21.255766 3.221297 5.110633 -10.206961 6.029899 -0.321833 -1.996023 1.284314 19.792632 12.326301 3.675837 53.078373 14.362650 1.777780 3.738556 34.531620 9.073959 0.000000 0.000000 -0.000000 -2.507961 16.854366 -10.415093 -1.856362 -33.583057 -9.254206 -0.000000 -0.000000 -0.000000 -6.914412 -50.018988 -7.272006 -12.254035 -6.782156 17.819961 
1.074491 -0.207673 -0.922582 174.827688 19.781308 -178.865465 -0.000000 -0.000000 0.000000 -2.315823 0.966753 4.704766 -0.420269 -1.244347 2.347093 0.000000 0.000000 0.000000 0.083768 -1.342603 2.740161 -0.092105 -23.914381 -2.925943 -0.531312 -1.044145 0.390695 -1.107325 -5.502063 0.540998 -82.719542 -21.740600 3.503728 5.239148 -11.850219 5.327291 -0.482079 -2.036400 1.303191 19.384727 12.287176 3.572642 53.371873 13.687412 1.510519 3.619152 34.612050 8.579223 0.000000 0.000000 -0.000000 -2.339789 16.738070 -9.695677 -1.767642 -33.905471 -9.748495 -0.000000 -0.000000 -0.000000 -7.015956 -48.614159 -7.307135 -12.077616 -7.691306 17.750842 
